<svg width="30" height="31" viewBox="0 0 30 31" fill="none" xmlns="http://www.w3.org/2000/svg">
<g clip-path="url(#clip0_58_294)">
<circle cx="15" cy="15.5" r="15" fill="#F4FFFF" style="fill:#F4FFFF;fill:color(display-p3 0.9569 1.0000 1.0000);fill-opacity:1;"/>
<g filter="url(#filter0_d_58_294)">
<path fill-rule="evenodd" clip-rule="evenodd" d="M27.6787 10.2342C26.1111 10.831 24.2505 11.0929 22.3734 10.9809C22.2493 10.9735 22.1254 10.9644 22.0017 10.9537C21.8781 10.9431 21.7547 10.9309 21.6316 10.917L19.7312 10.5661C18.8335 10.3254 18.0008 9.9965 17.2671 9.59283C17.2521 9.60352 17.2364 9.61336 17.2215 9.62415C18.512 10.1998 19.6442 11.0631 20.5088 12.1309C20.6444 12.0626 20.8047 12.0411 20.963 12.0701C21.3275 12.1528 21.5796 12.4802 21.5373 12.8162L21.5019 12.9546C21.4511 13.0704 21.3629 13.1669 21.2485 13.2318C22.0552 14.6353 22.3907 16.2036 22.2092 17.7226L21.7985 19.3335C20.3638 22.9782 16.01 24.7416 11.8773 23.3517C7.74457 21.9618 5.27091 17.9023 6.24041 14.1012C7.20994 10.3 11.2852 8.07973 15.527 9.04166C15.9558 9.14465 16.3774 9.2789 16.7878 9.44313C16.6761 9.39372 16.567 9.33868 16.4535 9.29333C15.0844 8.76899 13.6223 8.55045 12.1922 8.65642C8.90355 8.86396 6.14276 10.7492 5.01876 13.555C3.93907 16.2978 4.61377 19.3386 6.51726 21.6272C7.52181 22.835 8.8686 23.8333 10.4804 24.4678C13.976 25.8351 17.8659 25.1292 20.2681 22.6917C20.9849 21.9747 21.5432 21.1322 21.9152 20.206C22.4089 18.947 22.5413 17.5747 22.3132 16.2128C22.2697 16.0649 22.2391 15.9135 22.2215 15.7594C22.2017 15.6721 22.1861 15.5846 22.1632 15.4976C22.1799 15.4942 22.1957 15.4886 22.2123 15.4852C22.1804 14.0682 23.2191 12.5624 24.9955 11.45C25.8019 10.952 26.7248 10.5556 27.6982 10.2892C27.7003 10.2775 27.7024 10.2659 27.7044 10.2543C27.6959 10.2476 27.6873 10.241 27.6787 10.2342Z" fill="black" stroke="black" style="fill:black;fill-opacity:1;stroke:black;stroke-opacity:1;" stroke-width="1.00157"/>
<path fill-rule="evenodd" clip-rule="evenodd" d="M22.2122 15.4851C22.1956 15.4886 22.1799 15.4942 22.1632 15.4976C22.1861 15.5846 22.2016 15.6721 22.2214 15.7594C22.2139 15.6687 22.2108 15.5773 22.2122 15.4851Z" stroke="black" style="stroke:black;stroke-opacity:1;" stroke-width="1.18106"/>
<path fill-rule="evenodd" clip-rule="evenodd" d="M27.698 10.2893C26.7247 10.5557 25.8019 10.952 24.9955 11.45C24.1202 11.9982 23.4103 12.651 22.9258 13.3534C22.4413 14.0557 22.1966 14.787 22.2123 15.4852C22.7001 15.3835 23.1735 15.2396 23.624 15.0511C23.6653 15.0314 23.7065 15.0112 23.7474 14.9907C25.4407 14.257 26.7371 12.9525 27.3903 11.325C27.5124 11.0139 27.6102 10.6937 27.6828 10.3666C27.6873 10.3452 27.6916 10.3238 27.6959 10.3024C27.6968 10.2981 27.6974 10.2937 27.698 10.2893Z" fill="url(#paint0_linear_58_294)" stroke="black" style="stroke:black;stroke-opacity:1;" stroke-width="1.18106"/>
<path fill-rule="evenodd" clip-rule="evenodd" d="M25.1981 8.76749C23.609 8.14855 21.887 7.98757 20.2694 8.30673C20.2253 8.31808 20.1813 8.32978 20.1374 8.34184C19.084 8.56781 18.1081 8.99432 17.2671 9.59283C18.0008 9.9965 18.8335 10.3254 19.7312 10.5661L21.6316 10.917C23.7464 11.1551 25.8977 10.9122 27.6787 10.2342C27.6648 10.2233 27.6511 10.2123 27.6371 10.2015C27.5365 10.1188 27.4339 10.0383 27.3294 9.95992C26.6795 9.47071 25.9611 9.0688 25.1981 8.76749Z" fill="url(#paint1_linear_58_294)" stroke="black" style="stroke:black;stroke-opacity:1;" stroke-width="1.51087"/>
<path fill-rule="evenodd" clip-rule="evenodd" d="M16.7878 9.44312C16.9287 9.50525 17.0716 9.56308 17.2095 9.63137C17.2134 9.62875 17.2174 9.62636 17.2212 9.62369C17.0783 9.55992 16.9337 9.49971 16.7878 9.44312Z" stroke="black" style="stroke:black;stroke-opacity:1;" stroke-width="1.00157"/>
<path fill-rule="evenodd" clip-rule="evenodd" d="M20.5088 12.1309C20.7868 12.4803 21.0343 12.8486 21.2486 13.2318C21.3629 13.1669 21.4512 13.0704 21.502 12.9546L21.5373 12.8162C21.5577 12.6543 21.5095 12.4869 21.4027 12.3481C21.2959 12.2094 21.1386 12.1099 20.963 12.0701C20.8047 12.0411 20.6444 12.0626 20.5088 12.1309Z" fill="url(#paint2_linear_58_294)" stroke="black" style="stroke:black;stroke-opacity:1;" stroke-width="1.00157"/>
<path fill-rule="evenodd" clip-rule="evenodd" d="M10.0535 12.9234C9.89814 12.6314 9.84772 12.3107 9.91261 12.0271C9.97749 11.7435 10.1528 11.5185 10.4024 11.3983C10.6521 11.2781 10.9573 11.2718 11.2553 11.3807C11.5533 11.4896 11.8216 11.7054 12.005 11.9839C12.1885 12.2624 12.2733 12.5824 12.242 12.8782C12.2106 13.1741 12.0655 13.4234 11.8365 13.5749C11.6075 13.7265 11.3119 13.7688 11.0103 13.6932C10.7088 13.6176 10.4242 13.4298 10.2149 13.1684L10.0535 12.9234Z" fill="#FF4E00" stroke="black" style="fill:#FF4E00;fill:color(display-p3 1.0000 0.3059 0.0000);fill-opacity:1;stroke:black;stroke-opacity:1;" stroke-width="0.97683"/>
<path fill-rule="evenodd" clip-rule="evenodd" d="M11.4941 13.4377C11.2318 13.6165 10.8823 13.6717 10.5172 13.5919C10.1521 13.5121 9.79912 13.3034 9.5307 13.0086C9.26227 12.7138 9.09876 12.3553 9.07372 12.0067C9.04867 11.658 9.16399 11.3456 9.39601 11.1336C9.62803 10.9216 9.95916 10.8261 10.3214 10.8666C10.6837 10.9071 11.0497 11.0807 11.3442 11.3516C11.6388 11.6225 11.8395 11.9703 11.9054 12.3235C11.9712 12.6767 11.8971 13.0087 11.6982 13.2512L11.4941 13.4377Z" fill="black" stroke="black" style="fill:black;fill-opacity:1;stroke:black;stroke-opacity:1;" stroke-width="0.997848"/>
</g>
</g>
<defs>
<filter id="filter0_d_58_294" x="-1.96786" y="2.53216" width="35.1628" height="34.9357" filterUnits="userSpaceOnUse" color-interpolation-filters="sRGB">
<feFlood flood-opacity="0" result="BackgroundImageFix"/>
<feColorMatrix in="SourceAlpha" type="matrix" values="0 0 0 0 0 0 0 0 0 0 0 0 0 0 0 0 0 0 127 0" result="hardAlpha"/>
<feOffset dy="5"/>
<feGaussianBlur stdDeviation="2"/>
<feComposite in2="hardAlpha" operator="out"/>
<feColorMatrix type="matrix" values="0 0 0 0 0 0 0 0 0 0 0 0 0 0 0 0 0 0 0.25 0"/>
<feBlend mode="normal" in2="BackgroundImageFix" result="effect1_dropShadow_58_294"/>
<feBlend mode="normal" in="SourceGraphic" in2="effect1_dropShadow_58_294" result="shape"/>
</filter>
<linearGradient id="paint0_linear_58_294" x1="27.131" y1="14.3683" x2="23.2304" y2="11.3343" gradientUnits="userSpaceOnUse">
<stop stop-color="#FF0000" style="stop-color:#FF0000;stop-color:color(display-p3 1.0000 0.0000 0.0000);stop-opacity:1;"/>
<stop offset="1" stop-color="#FF0000" stop-opacity="0" style="stop-color:none;stop-opacity:0;"/>
</linearGradient>
<linearGradient id="paint1_linear_58_294" x1="23.441" y1="8.61308" x2="23.2877" y2="10.8334" gradientUnits="userSpaceOnUse">
<stop stop-color="#FF0C00" style="stop-color:#FF0C00;stop-color:color(display-p3 1.0000 0.0471 0.0000);stop-opacity:1;"/>
<stop offset="1" stop-color="#FF0000" stop-opacity="0" style="stop-color:none;stop-opacity:0;"/>
</linearGradient>
<linearGradient id="paint2_linear_58_294" x1="20.7426" y1="12.1605" x2="21.3066" y2="13.1681" gradientUnits="userSpaceOnUse">
<stop stop-color="#FDD071" style="stop-color:#FDD071;stop-color:color(display-p3 0.9922 0.8157 0.4431);stop-opacity:1;"/>
<stop offset="1" stop-color="#E04C00" style="stop-color:#E04C00;stop-color:color(display-p3 0.8784 0.2980 0.0000);stop-opacity:1;"/>
</linearGradient>
<clipPath id="clip0_58_294">
<rect width="30" height="30" fill="white" style="fill:white;fill-opacity:1;" transform="translate(0 0.5)"/>
</clipPath>
</defs>
</svg>
